<?xml version="1.0" standalone="no"?>
<!DOCTYPE svg PUBLIC "-//W3C//DTD SVG 20010904//EN"
 "http://www.w3.org/TR/2001/REC-SVG-20010904/DTD/svg10.dtd">
<svg version="1.0" xmlns="http://www.w3.org/2000/svg"
 width="500.000000pt" height="500.000000pt" viewBox="0 0 500.000000 500.000000"
 preserveAspectRatio="xMidYMid meet">

<g transform="translate(0.000000,500.000000) scale(0.100000,-0.100000)"
fill="#000000" stroke="none">
<path d="M1050 3203 c-14 -3 -29 -9 -35 -15 -7 -8 -6 -8 4 -3 10 6 12 4 7 -4
-5 -8 -12 -9 -20 -2 -14 12 -56 3 -56 -11 0 -5 -5 -6 -10 -3 -6 4 -23 -5 -37
-19 -14 -14 -31 -26 -37 -26 -6 0 -4 5 4 10 20 13 4 13 -21 0 -16 -9 -17 -14
-8 -33 9 -18 9 -20 -2 -10 -10 10 -16 7 -31 -15 -13 -19 -18 -22 -18 -10 0 9
5 20 10 23 6 3 10 12 10 18 0 7 -7 3 -15 -7 -8 -11 -15 -16 -15 -11 0 5 -13
-5 -30 -23 -16 -18 -35 -30 -40 -27 -6 4 -9 1 -8 -7 2 -7 -4 -12 -12 -10 -8 2
-12 0 -7 -4 4 -4 -10 -26 -30 -48 -21 -22 -29 -34 -19 -26 18 14 18 14 5 -7
-7 -12 -15 -20 -17 -18 -11 11 -68 -79 -63 -99 1 -5 -2 -12 -7 -15 -18 -12
-44 -135 -43 -209 0 -144 44 -251 145 -359 103 -111 242 -169 382 -161 82 6
154 40 178 86 35 69 30 165 -11 206 -23 24 -48 31 -183 57 -141 26 -200 77
-200 169 0 62 23 117 75 177 29 34 50 46 131 74 110 38 188 81 218 121 27 37
34 134 12 175 -28 55 -113 82 -206 66z m-190 -93 c0 -5 -2 -10 -4 -10 -3 0 -8
5 -11 10 -3 6 -1 10 4 10 6 0 11 -4 11 -10z m11 -23 c-10 -9 -11 -8 -5 6 3 10
9 15 12 12 3 -3 0 -11 -7 -18z m-95 -23 c-4 -10 1 -22 11 -31 17 -13 17 -14
-1 -5 -22 11 -77 -12 -72 -31 1 -7 1 -8 -2 -4 -2 5 -9 -1 -16 -14 -6 -12 -18
-25 -26 -27 -8 -3 1 14 19 36 18 23 38 42 45 42 7 0 18 11 24 25 13 27 28 35
18 9z m-166 -188 c0 -3 -4 -8 -10 -11 -5 -3 -10 -1 -10 4 0 6 5 11 10 11 6 0
10 -2 10 -4z"/>
<path d="M1458 3163 c-70 -75 -96 -206 -119 -593 -19 -313 6 -571 65 -693 38
-76 72 -100 113 -77 14 8 37 35 51 60 23 43 24 50 17 165 -25 438 -21 619 15
768 12 48 22 102 23 122 1 19 5 35 10 35 14 0 8 170 -8 199 -17 34 -32 41 -94
41 -39 0 -52 -5 -73 -27z"/>
<path d="M3868 2976 c-57 -43 -101 -260 -102 -501 -1 -185 6 -228 56 -328 32
-65 63 -86 105 -71 46 16 62 60 82 221 19 153 41 227 93 308 50 78 110 122
153 111 13 -3 50 -26 83 -51 33 -25 70 -45 82 -45 108 0 96 179 -19 283 -117
106 -227 84 -337 -67 l-21 -29 -24 67 c-29 85 -57 116 -101 116 -18 0 -41 -7
-50 -14z"/>
<path d="M2803 2945 c-168 -46 -263 -143 -263 -270 0 -69 22 -114 90 -186 48
-51 51 -56 47 -97 -6 -57 -47 -99 -146 -151 -134 -70 -178 -141 -132 -214 48
-77 145 -86 275 -24 93 45 167 112 205 188 62 125 52 199 -42 296 -101 106
-86 147 86 235 103 53 137 84 137 127 0 36 -35 90 -66 101 -36 14 -130 11
-191 -5z"/>
<path d="M1966 2870 c-28 -11 -71 -41 -98 -67 -85 -83 -128 -199 -128 -343 1
-153 36 -247 120 -323 64 -57 104 -71 192 -65 60 5 77 11 126 44 31 22 73 63
93 92 70 99 98 280 64 412 -48 194 -55 207 -129 245 -63 32 -166 34 -240 5z
m212 -375 c-7 -97 -25 -138 -61 -133 -45 6 -27 121 30 188 14 17 27 30 30 30
3 0 3 -38 1 -85z"/>
<path d="M3368 2832 c-111 -40 -179 -116 -224 -248 -23 -68 -26 -91 -22 -169
7 -138 55 -217 155 -255 94 -35 210 -19 292 41 52 37 78 79 86 140 13 90 -41
136 -106 92 -130 -89 -155 -104 -179 -101 -20 2 -26 9 -28 37 -5 47 5 78 25
86 10 3 55 13 101 21 181 31 257 109 222 227 -15 53 -85 122 -137 136 -55 16
-131 13 -185 -7z m177 -201 c9 -15 -45 -51 -76 -51 -35 0 -36 6 -7 37 22 23
72 32 83 14z"/>
</g>
</svg>
